<svg xmlns="http://www.w3.org/2000/svg" data-name="Layer 2" viewBox="0 0 64 80" x="0px" y="0px">
  <path d="M54.5,28.37V6.13A2.63,2.63,0,0,0,51.88,3.5H11.12A2.63,2.63,0,0,0,8.5,6.13V28.37a2.59,2.59,0,0,0,1.17,2.18,2,2,0,0,0-.59,1.05,2,2,0,0,0,0,.8,2,2,0,0,0,.58,1.05A2.62,2.62,0,0,0,8.5,35.63V57.88a2.63,2.63,0,0,0,2.63,2.62H51.88a2.63,2.63,0,0,0,2.62-2.62V35.63a2.6,2.6,0,0,0-1.17-2.18A2,2,0,0,0,54,32a1.91,1.91,0,0,0-.63-1.44A2.63,2.63,0,0,0,54.5,28.37ZM11,33a1,1,0,0,1-1-.8,1,1,0,0,1,0-.4A1,1,0,0,1,10.8,31h6.27v2H11ZM53.5,57.88a1.63,1.63,0,0,1-1.62,1.62H11.13A1.63,1.63,0,0,1,9.5,57.88V35.63A1.63,1.63,0,0,1,11.13,34H51.88a1.63,1.63,0,0,1,1.62,1.63ZM46,33V31h6.23A1,1,0,0,1,53,32a1,1,0,0,1-1,1H46Zm7.54-4.63A1.64,1.64,0,0,1,51.94,30l-7,0v3H18.07V30h-7v0A1.64,1.64,0,0,1,9.5,28.37V6.13A1.63,1.63,0,0,1,11.12,4.5H51.88A1.63,1.63,0,0,1,53.5,6.13Z" />
  <path d="M40.81,30h-20a.5.5,0,0,0,0,1h20a.5.5,0,0,0,0-1Z" />
  <path d="M15.88,27.58h31v-19h-31Zm1-18h29v17h-29Z" />
  <rect x="12.08" y="17.58" width="1" height="1" />
  <rect x="13.58" y="16.08" width="1" height="1" />
  <rect x="12.08" y="16.08" width="1" height="1" />
  <rect x="10.58" y="16.08" width="1" height="1" />
  <rect x="12.08" y="14.58" width="1" height="1" />
  <rect x="49.92" y="17.58" width="1" height="1" />
  <rect x="51.42" y="16.08" width="1" height="1" />
  <rect x="49.92" y="16.08" width="1" height="1" />
  <rect x="48.42" y="16.08" width="1" height="1" />
  <rect x="49.92" y="14.58" width="1" height="1" />
  <path d="M18,55.17H44v-19H18Zm1-18H43v17H19Z" />
  <path d="M48.76,41.83a1.5,1.5,0,1,0-1.5-1.5A1.5,1.5,0,0,0,48.76,41.83Zm0-2a.5.5,0,0,1,.5.5.5.5,0,0,1-.5.5.5.5,0,0,1-.5-.5A.51.51,0,0,1,48.76,39.83Z" />
  <path d="M31.38,8a1.5,1.5,0,1,0-1.5-1.5A1.51,1.51,0,0,0,31.38,8Zm0-2a.5.5,0,0,1,.5.5.51.51,0,0,1-.5.5.5.5,0,0,1-.5-.5A.5.5,0,0,1,31.38,6Z" />
  <path d="M48.76,43.84a1.5,1.5,0,1,0,1.5,1.5A1.5,1.5,0,0,0,48.76,43.84Zm0,2a.51.51,0,0,1-.5-.5.5.5,0,0,1,.5-.5.5.5,0,0,1,.5.5A.5.5,0,0,1,48.76,45.84Z" />
  <path d="M47.76,42.83a1.5,1.5,0,1,0-1.5,1.5A1.5,1.5,0,0,0,47.76,42.83Zm-1.5.5a.5.5,0,0,1-.5-.5.51.51,0,0,1,.5-.5.5.5,0,0,1,.5.5A.5.5,0,0,1,46.26,43.33Z" />
  <path d="M51.27,41.33a1.5,1.5,0,1,0,1.5,1.5A1.5,1.5,0,0,0,51.27,41.33Zm0,2a.5.5,0,0,1-.5-.5.5.5,0,0,1,.5-.5.51.51,0,0,1,.5.5A.5.5,0,0,1,51.27,43.33Z" />
  <path d="M15.23,46.67h-3v2h-2v3h2v2h3v-2h2v-3h-2Zm-2,1h1V49l-.5.5-.5-.5Zm-2,2h1.3l.5.5-.5.5h-1.3Zm3,3h-1V51.38l.5-.5.5.5Zm2-2H14.94l-.5-.5.5-.5h1.29Z" />
  <path d="M13.55,43.33a3,3,0,1,0-3-3A3,3,0,0,0,13.55,43.33Zm0-5a2,2,0,1,1-2,2A2,2,0,0,1,13.55,38.33Z" />
  <rect x="45.19" y="53.67" width="1" height="1" />
  <rect x="45.19" y="51.17" width="1" height="1" />
</svg>