<svg xmlns="http://www.w3.org/2000/svg" data-name="Layer 2" viewBox="0 0 64 80" x="0px" y="0px">
  <path d="M8,33.15a1.5,1.5,0,1,0,1.5-1.5A1.5,1.5,0,0,0,8,33.15Zm2,0a.5.5,0,0,1-1,0,.5.5,0,0,1,1,0Z" />
  <path d="M9.5,36.66a1.5,1.5,0,1,0,1.5,1.5A1.5,1.5,0,0,0,9.5,36.66Zm0,2a.5.5,0,0,1-.5-.5.5.5,0,0,1,1,0A.5.5,0,0,1,9.5,38.66Z" />
  <path d="M8.5,35.65A1.5,1.5,0,1,0,7,37.15,1.5,1.5,0,0,0,8.5,35.65Zm-1.5.5a.5.5,0,0,1-.5-.5.5.5,0,0,1,.5-.5.51.51,0,0,1,.5.5A.5.5,0,0,1,7,36.15Z" />
  <path d="M12,34.15a1.5,1.5,0,1,0,1.5,1.5A1.5,1.5,0,0,0,12,34.15Zm0,2a.5.5,0,0,1-.5-.5.51.51,0,0,1,.5-.5.5.5,0,0,1,.5.5A.5.5,0,0,1,12,36.15Z" />
  <path d="M9.5,27.4a3,3,0,1,0-3-3A3,3,0,0,0,9.5,27.4Zm0-5a2,2,0,1,1-2,2A2,2,0,0,1,9.5,22.4Z" />
  <path d="M52.74,27.91a1.5,1.5,0,1,0,1.5-1.5A1.5,1.5,0,0,0,52.74,27.91Zm1.5-.5a.5.5,0,0,1,.5.5.51.51,0,0,1-.5.5.5.5,0,0,1-.5-.5A.5.5,0,0,1,54.24,27.41Z" />
  <path d="M54.24,24.4a1.5,1.5,0,1,0-1.5-1.5A1.5,1.5,0,0,0,54.24,24.4Zm0-2a.51.51,0,0,1,.5.5.5.5,0,0,1-.5.5.5.5,0,0,1-.5-.5A.5.5,0,0,1,54.24,22.4Z" />
  <path d="M55.24,25.41a1.5,1.5,0,1,0,1.5-1.5A1.5,1.5,0,0,0,55.24,25.41Zm2,0a.51.51,0,0,1-.5.5.5.5,0,0,1-.5-.5.5.5,0,0,1,.5-.5A.5.5,0,0,1,57.24,25.41Z" />
  <path d="M53.23,25.41a1.5,1.5,0,1,0-1.5,1.5A1.5,1.5,0,0,0,53.23,25.41Zm-2,0a.5.5,0,0,1,.5-.5.5.5,0,0,1,.5.5.5.5,0,0,1-.5.5A.51.51,0,0,1,51.23,25.41Z" />
  <path d="M54.24,33.66a3,3,0,1,0,3,3A3,3,0,0,0,54.24,33.66Zm0,5a2,2,0,1,1,2-2A2,2,0,0,1,54.24,38.66Z" />
  <path d="M46.5,19h-29V42h29Zm-1,22h-27V20h27Z" />
  <path d="M49.79,15H14.21C8.3,15,3.5,19.18,3.5,24.28v12.5C3.5,41.88,8.3,46,14.21,46H49.79c5.91,0,10.71-4.15,10.71-9.25V24.28C60.5,19.18,55.7,15,49.79,15ZM14.5,45h-.29c-5.35,0-9.71-3.7-9.71-8.25V24.28C4.5,19.73,8.86,16,14.21,16h.29Zm34,0h-33V16h33Zm11-8.25c0,4.55-4.36,8.25-9.71,8.25H49.5V16h.29c5.35,0,9.71,3.7,9.71,8.25Z" />
</svg>