<svg xmlns="http://www.w3.org/2000/svg" xmlns:xlink="http://www.w3.org/1999/xlink" version="1.1" x="0px" y="0px" viewBox="0 0 512 640"
 style="enable-background:new 0 0 512 512;" xml:space="preserve"><g><g>
 <path d="M454.05,329.006h-254c-10.654,0-19-8.346-19-19v-183c0-10.654,8.346-19,19-19h254c10.654,0,19,8.346,19,19v183    C473.05,320.66,464.704,329.006,454.05,329.006z M200.05,114.006c-7.29,0-13,5.71-13,13v183c0,7.29,5.71,13,13,13h254    c7.29,0,13-5.71,13-13v-183c0-7.29-5.71-13-13-13H200.05z"/></g><g><path d="M454.05,280.006h-254c-1.657,0-3-1.343-3-3v-150c0-1.657,1.343-3,3-3h254c1.657,0,3,1.343,3,3v150    C457.05,278.663,455.707,280.006,454.05,280.006z M203.05,274.006h248v-144h-248V274.006z"/></g><g><path d="M373.05,381.006h-92c-0.924,0-1.796-0.426-2.364-1.153c-0.569-0.729-0.771-1.678-0.546-2.574l13-52    c0.334-1.336,1.533-2.272,2.91-2.272h65c1.356,0,2.544,0.91,2.896,2.22l14,52c0.243,0.901,0.053,1.864-0.516,2.605    C374.863,380.571,373.983,381.006,373.05,381.006z M284.893,375.006h84.243l-12.385-46h-60.358L284.893,375.006z"/></g><g><path d="M414.05,393.006h-174c-1.657,0-3-1.343-3-3v-12c0-1.657,1.343-3,3-3h174c1.657,0,3,1.343,3,3v12    C417.05,391.663,415.707,393.006,414.05,393.006z M243.05,387.006h168v-6h-168V387.006z"/></g><g><path d="M327.05,318.006c-5.636,0-9-3.364-9-9c0-4.473,3.092-9,9-9c4.626,0,9,4.374,9,9    C336.05,314.914,331.522,318.006,327.05,318.006z M327.05,306.006c-2.855,0-3,2.499-3,3c0,2.355,0.645,3,3,3c0.501,0,3-0.145,3-3    C330.05,307.66,328.396,306.006,327.05,306.006z"/></g><g><path d="M298.05,150.006h-66c-1.657,0-3-1.343-3-3s1.343-3,3-3h66c1.657,0,3,1.343,3,3S299.707,150.006,298.05,150.006z"/></g><g><path d="M364.05,164.006h-132c-1.657,0-3-1.343-3-3s1.343-3,3-3h132c1.657,0,3,1.343,3,3S365.707,164.006,364.05,164.006z"/></g><g><path d="M364.05,178.006h-132c-1.657,0-3-1.343-3-3s1.343-3,3-3h132c1.657,0,3,1.343,3,3S365.707,178.006,364.05,178.006z"/></g><g><path d="M486.05,195.006c-1.657,0-3-1.343-3-3v-79c0-7.589-6.869-14-15-14h-45c-1.657,0-3-1.343-3-3s1.343-3,3-3h45    c11.383,0,21,9.159,21,20v79C489.05,193.663,487.707,195.006,486.05,195.006z"/></g><g><path d="M321.05,232.006h-89c-1.657,0-3-1.343-3-3s1.343-3,3-3h89c1.657,0,3,1.343,3,3S322.707,232.006,321.05,232.006z"/></g><g><path d="M410.05,246.006h-178c-1.657,0-3-1.343-3-3s1.343-3,3-3h178c1.657,0,3,1.343,3,3S411.707,246.006,410.05,246.006z"/></g><g><path d="M410.05,260.006h-178c-1.657,0-3-1.343-3-3c0-1.657,1.343-3,3-3h178c1.657,0,3,1.343,3,3    C413.05,258.663,411.707,260.006,410.05,260.006z"/></g><g><path d="M156.05,390.006h-109c-1.657,0-3-1.343-3-3v-227c0-1.657,1.343-3,3-3h109c1.657,0,3,1.343,3,3v227    C159.05,388.663,157.707,390.006,156.05,390.006z M50.05,384.006h103v-221h-103V384.006z"/></g><g><path d="M156.05,390.006h-109c-1.657,0-3-1.343-3-3v-19c0-1.657,1.343-3,3-3h109c1.657,0,3,1.343,3,3v19    C159.05,388.663,157.707,390.006,156.05,390.006z M50.05,384.006h103v-13h-103V384.006z"/></g><g><path d="M156.05,371.006h-109c-1.657,0-3-1.343-3-3v-38c0-1.657,1.343-3,3-3h109c1.657,0,3,1.343,3,3v38    C159.05,369.663,157.707,371.006,156.05,371.006z M50.05,365.006h103v-32h-103V365.006z"/></g><g><path d="M156.05,333.006h-109c-1.657,0-3-1.343-3-3v-13c0-1.657,1.343-3,3-3h109c1.657,0,3,1.343,3,3v13    C159.05,331.663,157.707,333.006,156.05,333.006z M50.05,327.006h103v-7h-103V327.006z"/></g><g><path d="M143.05,219.006h-84c-1.657,0-3-1.343-3-3v-32c0-1.657,1.343-3,3-3h84c1.657,0,3,1.343,3,3v32    C146.05,217.663,144.707,219.006,143.05,219.006z M62.05,213.006h78v-26h-78V213.006z"/></g><g><path d="M101.05,308.006c-7.411,0-13-6.019-13-14c0-6.252,4.97-13,13-13c7.458,0,14,6.075,14,13    C115.05,301.726,108.77,308.006,101.05,308.006z M101.05,287.006c-4.324,0-7,3.634-7,7c0,3.976,2.404,8,7,8c4.336,0,8-3.663,8-8    C109.05,290.769,105.556,287.006,101.05,287.006z"/></g><g><path d="M340.05,409.006h-302c-1.657,0-3-1.343-3-3s1.343-3,3-3h302c1.657,0,3,1.343,3,3S341.707,409.006,340.05,409.006z"/></g><g><path d="M424.05,419.006h-209c-1.657,0-3-1.343-3-3s1.343-3,3-3h209c1.657,0,3,1.343,3,3S425.707,419.006,424.05,419.006z"/></g><g><path d="M471.05,419.006h-26c-1.657,0-3-1.343-3-3s1.343-3,3-3h26c1.657,0,3,1.343,3,3S472.707,419.006,471.05,419.006z"/></g><g><path d="M125.05,419.006h-99c-1.657,0-3-1.343-3-3s1.343-3,3-3h99c1.657,0,3,1.343,3,3S126.707,419.006,125.05,419.006z"/></g><g><path d="M134.05,254.006h-87c-1.657,0-3-1.343-3-3s1.343-3,3-3h87c1.657,0,3,1.343,3,3S135.707,254.006,134.05,254.006z"/></g></g></svg>