<svg xmlns="http://www.w3.org/2000/svg" data-name="Layer 2" viewBox="0 0 64 80" x="0px" y="0px">
  <path d="M60.5,29.24a70.26,70.26,0,0,0-3-20.14l-.11-.35H6.63l-.11.35a70.33,70.33,0,0,0-3,20.15,70,70,0,0,0,3,20.1l1.1,4.4H56.39l1.1-4.39a75.25,75.25,0,0,0,1.92-8l.11-.59h0A67.88,67.88,0,0,0,60.5,29.24ZM7.37,9.75H56.63A69.17,69.17,0,0,1,59.5,29.24a66.8,66.8,0,0,1-1,11.51H40a8.51,8.51,0,0,0-8.48,8H7.37A69.34,69.34,0,0,1,4.5,29.25,69.23,69.23,0,0,1,7.37,9.75ZM57.6,45.09c-.29,1.22-.62,2.44-1,3.66H32.52a7.51,7.51,0,0,1,7.48-7H58.3c-.13.72-.29,1.45-.45,2.18C57.76,44.32,57.69,44.71,57.6,45.09Zm-2,7.66H8.39l-.75-3H56.36Z" />
  <rect x="31.5" y="12.75" width="1" height="26.63" />
  <path d="M36.5,46.75h19v-3h-19Zm1-2h17v1h-17Z" />
</svg>