<svg xmlns="http://www.w3.org/2000/svg" xmlns:xlink="http://www.w3.org/1999/xlink" version="1.1" x="0px" y="0px"
  viewBox="0 0 100 100" enable-background="new 0 0 100 100" xml:space="preserve">
  <path d="M82.446,70.164L55.497,23.487c-1.13-1.958-3.237-3.174-5.497-3.174s-4.367,1.216-5.498,3.174L17.555,70.164  c-1.132,1.958-1.132,4.391-0.001,6.348c1.13,1.958,3.236,3.175,5.498,3.175h53.896c2.262,0,4.368-1.217,5.497-3.174  C83.577,74.555,83.577,72.122,82.446,70.164z M78.981,74.514c-0.417,0.724-1.196,1.173-2.033,1.173H23.052  c-0.837,0-1.616-0.449-2.034-1.174s-0.418-1.624,0.001-2.349l26.947-46.677c0.419-0.724,1.198-1.174,2.034-1.174  s1.615,0.45,2.033,1.174l26.949,46.677C79.4,72.889,79.4,73.788,78.981,74.514z M48,58.208h4v-19.5h-4V58.208z M48,68.292h4v-6.167  h-4V68.292z" />
</svg>